# xmcd
#
# Track frame offsets: 
#        150
#        17779
#        32873
#        46417
#        65400
#        84472
#        103732
#        121505
#        143380
#        161997
#        173741
#
# Disc length: 2529 seconds
#
# Revision: 0
# Processed by: cddbd v1.5.2PL0 Copyright (c) Steve Scherf et al.
# Submitted via: ExactAudioCopy v0.95b4
#
DISCID=8809df0b
DTITLE=Mare Wakefield - Ironwood
DYEAR=2008
DGENRE=Country
TTITLE0=Enjoy The View
TTITLE1=Enough Bad Love
TTITLE2=Dreams Come True
TTITLE3=Together Alone
TTITLE4=Ironwood
TTITLE5=Arizona
TTITLE6=Pretty Little Bird
TTITLE7=Slimeball
TTITLE8=Wedding Day
TTITLE9=Whiskey Does It Better
TTITLE10=Peg and Awl
EXTD=
EXTT0=
EXTT1=
EXTT2=
EXTT3=
EXTT4=
EXTT5=
EXTT6=
EXTT7=
EXTT8=
EXTT9=
EXTT10=
PLAYORDER=
